<svg width="118" height="25" viewBox="0 0 118 25" fill="none" xmlns="http://www.w3.org/2000/svg">
<path d="M18.8357 4.19559L12.7461 19.2977C11.9702 21.2283 11.0049 22.5816 9.85017 23.3574C8.69541 24.1333 7.27902 24.5212 5.601 24.5212C4.77102 24.5212 3.93201 24.3949 3.08398 24.1423C2.254 23.9077 1.59542 23.592 1.10825 23.195L3.13811 19C3.44484 19.2346 3.78766 19.424 4.16657 19.5684C4.56352 19.7127 4.94243 19.7849 5.30329 19.7849C5.97089 19.7849 6.4761 19.5864 6.81892 19.1895L0.594025 4.19559H6.87305L9.93136 12.1256L13.0438 4.19559H18.8357Z" fill="white"/>
<path d="M27.1961 19.2707C25.5542 19.2707 24.0747 18.9459 22.7575 18.2963C21.4584 17.6287 20.439 16.7175 19.6992 15.5628C18.9594 14.39 18.5895 13.0638 18.5895 11.5843C18.5895 10.1047 18.9594 8.78758 19.6992 7.63282C20.439 6.46001 21.4584 5.54883 22.7575 4.89928C24.0747 4.24972 25.5542 3.92495 27.1961 3.92495C28.8561 3.92495 30.3356 4.24972 31.6348 4.89928C32.9519 5.54883 33.9713 6.46001 34.6931 7.63282C35.4328 8.78758 35.8027 10.1047 35.8027 11.5843C35.8027 13.0638 35.4328 14.39 34.6931 15.5628C33.9713 16.7175 32.9519 17.6287 31.6348 18.2963C30.3356 18.9459 28.8561 19.2707 27.1961 19.2707ZM27.1961 14.5073C27.8998 14.5073 28.4772 14.2547 28.9283 13.7494C29.3794 13.2262 29.6049 12.5045 29.6049 11.5843C29.6049 10.6641 29.3794 9.95136 28.9283 9.44615C28.4772 8.94095 27.8998 8.68834 27.1961 8.68834C26.4924 8.68834 25.9151 8.94095 25.464 9.44615C25.0129 9.95136 24.7874 10.6641 24.7874 11.5843C24.7874 12.5045 25.0129 13.2262 25.464 13.7494C25.9151 14.2547 26.4924 14.5073 27.1961 14.5073Z" fill="white"/>
<path d="M47.5958 3.92495C48.8949 3.92495 50.0857 4.2407 51.1683 4.87221C52.2689 5.48568 53.135 6.37882 53.7665 7.55162C54.4161 8.72443 54.7409 10.0777 54.7409 11.6113C54.7409 13.145 54.4161 14.4982 53.7665 15.671C53.135 16.8258 52.2689 17.7189 51.1683 18.3505C50.0857 18.9639 48.8949 19.2707 47.5958 19.2707C45.9538 19.2707 44.6998 18.8466 43.8338 17.9986V24.2506H37.7171V4.19559H43.536V5.41351C44.4202 4.42113 45.7734 3.92495 47.5958 3.92495ZM46.1343 14.5073C46.8379 14.5073 47.4153 14.2547 47.8664 13.7494C48.3175 13.2442 48.543 12.5315 48.543 11.6113C48.543 10.6911 48.3175 9.97843 47.8664 9.47322C47.4153 8.94997 46.8379 8.68834 46.1343 8.68834C45.4306 8.68834 44.8532 8.94997 44.4021 9.47322C43.951 9.97843 43.7255 10.6911 43.7255 11.6113C43.7255 12.5315 43.951 13.2442 44.4021 13.7494C44.8532 14.2547 45.4306 14.5073 46.1343 14.5073Z" fill="white"/>
<path d="M62.9286 3.92495C65.5268 3.92495 67.5115 4.51135 68.8828 5.68416C70.2541 6.83892 70.9397 8.62519 70.9397 11.043V19H65.2561V17.0513C64.5525 18.5309 63.1541 19.2707 61.0611 19.2707C59.8883 19.2707 58.8869 19.0722 58.0569 18.6752C57.245 18.2602 56.6225 17.7099 56.1895 17.0243C55.7745 16.3206 55.567 15.5357 55.567 14.6697C55.567 13.2082 56.1263 12.0985 57.245 11.3407C58.3637 10.5829 60.0597 10.204 62.3331 10.204H64.796C64.5976 9.0492 63.6683 8.47182 62.0084 8.47182C61.3408 8.47182 60.6642 8.58008 59.9785 8.7966C59.2929 8.99508 58.7065 9.27474 58.2193 9.63561L56.2706 5.60296C57.1187 5.07971 58.1381 4.67374 59.329 4.38505C60.5379 4.07831 61.7377 3.92495 62.9286 3.92495ZM62.9015 15.5899C63.3345 15.5899 63.7225 15.4726 64.0653 15.238C64.4081 15.0035 64.6607 14.6516 64.8231 14.1825V13.154H63.3075C62.0625 13.154 61.44 13.569 61.44 14.399C61.44 14.7418 61.5663 15.0305 61.8189 15.2651C62.0896 15.4816 62.4504 15.5899 62.9015 15.5899Z" fill="white"/>
<path d="M90.3841 4.19559V16.05C90.3841 18.8647 89.5992 20.9757 88.0294 22.3831C86.4777 23.8085 84.2584 24.5212 81.3715 24.5212C79.892 24.5212 78.5117 24.3588 77.2306 24.0341C75.9495 23.7273 74.8579 23.2762 73.9558 22.6808L76.0127 18.5128C76.5901 18.9459 77.3208 19.2977 78.2049 19.5684C79.089 19.839 79.9371 19.9743 80.749 19.9743C81.9759 19.9743 82.8691 19.7127 83.4284 19.1895C83.9878 18.6662 84.2674 17.8994 84.2674 16.889V16.6183C83.3472 17.6648 81.985 18.1881 80.1806 18.1881C78.9176 18.1881 77.7358 17.8994 76.6352 17.322C75.5526 16.7266 74.6865 15.8876 74.037 14.805C73.3874 13.7043 73.0626 12.4503 73.0626 11.043C73.0626 9.63561 73.3874 8.39063 74.037 7.30804C74.6865 6.22545 75.5526 5.39546 76.6352 4.81808C77.7358 4.22266 78.9176 3.92495 80.1806 3.92495C82.2015 3.92495 83.663 4.5745 84.5651 5.87361V4.19559H90.3841ZM81.8045 13.4247C82.5263 13.4247 83.1217 13.2082 83.5908 12.7751C84.078 12.324 84.3216 11.7467 84.3216 11.043C84.3216 10.3393 84.078 9.77093 83.5908 9.3379C83.1217 8.90486 82.5263 8.68834 81.8045 8.68834C81.0648 8.68834 80.4513 8.90486 79.9641 9.3379C79.495 9.77093 79.2605 10.3393 79.2605 11.043C79.2605 11.7467 79.504 12.324 79.9912 12.7751C80.4784 13.2082 81.0828 13.4247 81.8045 13.4247Z" fill="white"/>
<path d="M100.911 19.2707C99.2686 19.2707 97.7891 18.9459 96.4719 18.2963C95.1728 17.6287 94.1534 16.7175 93.4136 15.5628C92.6739 14.39 92.304 13.0638 92.304 11.5843C92.304 10.1047 92.6739 8.78758 93.4136 7.63282C94.1534 6.46001 95.1728 5.54883 96.4719 4.89928C97.7891 4.24972 99.2686 3.92495 100.911 3.92495C102.571 3.92495 104.05 4.24972 105.349 4.89928C106.666 5.54883 107.686 6.46001 108.407 7.63282C109.147 8.78758 109.517 10.1047 109.517 11.5843C109.517 13.0638 109.147 14.39 108.407 15.5628C107.686 16.7175 106.666 17.6287 105.349 18.2963C104.05 18.9459 102.571 19.2707 100.911 19.2707ZM100.911 14.5073C101.614 14.5073 102.192 14.2547 102.643 13.7494C103.094 13.2262 103.319 12.5045 103.319 11.5843C103.319 10.6641 103.094 9.95136 102.643 9.44615C102.192 8.94095 101.614 8.68834 100.911 8.68834C100.207 8.68834 99.6295 8.94095 99.1784 9.44615C98.7273 9.95136 98.5018 10.6641 98.5018 11.5843C98.5018 12.5045 98.7273 13.2262 99.1784 13.7494C99.6295 14.2547 100.207 14.5073 100.911 14.5073Z" fill="white"/>
<path d="M110.674 0.0546875H117.981L116.763 11.7467H111.892L110.674 0.0546875ZM114.327 19.2707C113.281 19.2707 112.424 18.9549 111.756 18.3234C111.089 17.6919 110.755 16.925 110.755 16.0229C110.755 15.1027 111.089 14.3449 111.756 13.7494C112.424 13.136 113.281 12.8292 114.327 12.8292C115.374 12.8292 116.231 13.136 116.899 13.7494C117.566 14.3449 117.9 15.1027 117.9 16.0229C117.9 16.925 117.566 17.6919 116.899 18.3234C116.231 18.9549 115.374 19.2707 114.327 19.2707Z" fill="white"/>
</svg>
